<?xml version="1.0" encoding="UTF-8" standalone="no"?>
<!-- Created with Inkscape (http://www.inkscape.org/) -->

<svg
   width="5.2916665mm"
   height="4.4979167mm"
   viewBox="0 0 5.2916665 4.4979167"
   version="1.1"
   id="svg5"
   inkscape:version="1.1 (1:1.1+202105261517+ce6663b3b7)"
   sodipodi:docname="users.png.svg"
   xmlns:inkscape="http://www.inkscape.org/namespaces/inkscape"
   xmlns:sodipodi="http://sodipodi.sourceforge.net/DTD/sodipodi-0.dtd"
   xmlns="http://www.w3.org/2000/svg"
   xmlns:svg="http://www.w3.org/2000/svg">
  <sodipodi:namedview
     id="namedview7"
     pagecolor="#505050"
     bordercolor="#eeeeee"
     borderopacity="1"
     inkscape:pageshadow="0"
     inkscape:pageopacity="0"
     inkscape:pagecheckerboard="0"
     inkscape:document-units="mm"
     showgrid="false"
     inkscape:zoom="0.75187991"
     inkscape:cx="260.01493"
     inkscape:cy="87.114976"
     inkscape:window-width="1848"
     inkscape:window-height="1016"
     inkscape:window-x="72"
     inkscape:window-y="27"
     inkscape:window-maximized="1"
     inkscape:current-layer="layer1" />
  <defs
     id="defs2">
    <linearGradient
       id="paint0_linear"
       x1="16.792299"
       y1="4.9361601"
       x2="15.2894"
       y2="18.9475"
       gradientUnits="userSpaceOnUse">
      <stop
         stop-color="#5498FF"
         id="stop19" />
      <stop
         offset="0.515625"
         stop-color="#428EFF"
         id="stop21" />
      <stop
         offset="1"
         stop-color="#297FFF"
         id="stop23" />
    </linearGradient>
    <linearGradient
       id="paint1_linear"
       x1="12.1462"
       y1="-7.5851202"
       x2="7.1497798"
       y2="9.8824501"
       gradientUnits="userSpaceOnUse">
      <stop
         stop-color="#5498FF"
         id="stop26" />
      <stop
         offset="0.515625"
         stop-color="#428EFF"
         id="stop28" />
      <stop
         offset="1"
         stop-color="#297FFF"
         id="stop30" />
    </linearGradient>
    <linearGradient
       id="paint2_linear"
       x1="19.659"
       y1="5.2083802"
       x2="13.7498"
       y2="15.7666"
       gradientUnits="userSpaceOnUse">
      <stop
         stop-color="#5498FF"
         id="stop33" />
      <stop
         offset="0.515625"
         stop-color="#428EFF"
         id="stop35" />
      <stop
         offset="1"
         stop-color="#297FFF"
         id="stop37" />
    </linearGradient>
    <linearGradient
       id="paint3_linear"
       x1="16.333599"
       y1="-7.1616302"
       x2="7.5907602"
       y2="4.7010798"
       gradientUnits="userSpaceOnUse">
      <stop
         stop-color="#5498FF"
         id="stop40" />
      <stop
         offset="0.515625"
         stop-color="#428EFF"
         id="stop42" />
      <stop
         offset="1"
         stop-color="#297FFF"
         id="stop44" />
    </linearGradient>
    <clipPath
       id="clip0">
      <rect
         width="20"
         height="20"
         fill="#ffffff"
         transform="translate(1.2207e-4)"
         id="rect47"
         x="0"
         y="0" />
    </clipPath>
  </defs>
  <g
     inkscape:label="Camada 1"
     inkscape:groupmode="layer"
     id="layer1"
     transform="translate(-36.414593,-125.48919)">
    <g
       clip-path="url(#clip0)"
       id="g17"
       transform="matrix(0.26458333,0,0,0.26458333,36.414561,125.09232)">
      <path
         d="m 14.1668,17.5 v -1.6667 c 0,-0.884 -0.3512,-1.7319 -0.9763,-2.357 C 12.5654,12.8512 11.7176,12.5 10.8335,12.5 H 4.16683 c -0.88406,0 -1.7319,0.3512 -2.35702,0.9763 -0.62512,0.6251 -0.976314,1.473 -0.976314,2.357 V 17.5"
         stroke="url(#paint0_linear)"
         stroke-width="2"
         stroke-linecap="round"
         stroke-linejoin="round"
         id="path9"
         style="stroke:url(#paint0_linear)" />
      <path
         d="m 7.50008,9.16667 c 1.84095,0 3.33332,-1.49239 3.33332,-3.33334 C 10.8334,3.99238 9.34103,2.5 7.50008,2.5 5.65913,2.5 4.16675,3.99238 4.16675,5.83333 c 0,1.84095 1.49238,3.33334 3.33333,3.33334 z"
         stroke="url(#paint1_linear)"
         stroke-width="2"
         stroke-linecap="round"
         stroke-linejoin="round"
         id="path11"
         style="stroke:url(#paint1_linear)" />
      <path
         d="m 19.1667,17.5 v -1.6667 c -5e-4,-0.7385 -0.2463,-1.456 -0.6988,-2.0397 -0.4525,-0.5837 -1.086,-1.0006 -1.8012,-1.1853"
         stroke="url(#paint2_linear)"
         stroke-width="2"
         stroke-linecap="round"
         stroke-linejoin="round"
         id="path13"
         style="stroke:url(#paint2_linear)" />
      <path
         d="m 13.3335,2.60833 c 0.717,0.18359 1.3525,0.60059 1.8064,1.18526 0.4538,0.58468 0.7001,1.30377 0.7001,2.04391 0,0.74014 -0.2463,1.45923 -0.7001,2.04391 -0.4539,0.58467 -1.0894,1.00167 -1.8064,1.18526"
         stroke="url(#paint3_linear)"
         stroke-width="2"
         stroke-linecap="round"
         stroke-linejoin="round"
         id="path15"
         style="stroke:url(#paint3_linear)" />
    </g>
  </g>
</svg>
